<?xml version="1.0" standalone="no"?>
<!DOCTYPE svg PUBLIC "-//W3C//DTD SVG 20010904//EN"
 "http://www.w3.org/TR/2001/REC-SVG-20010904/DTD/svg10.dtd">
<svg version="1.0" xmlns="http://www.w3.org/2000/svg"
 width="95.000000pt" height="95.000000pt" viewBox="0 0 95.000000 95.000000"
 preserveAspectRatio="xMidYMid meet">
<metadata>
Created by potrace 1.11, written by Peter Selinger 2001-2013
</metadata>
<g transform="translate(0.000000,95.000000) scale(0.100000,-0.100000)"
fill="#000000" stroke="none">
<path d="M336 933 c-125 -37 -221 -154 -231 -281 -2 -26 -4 -48 -4 -49 -1 -1
-19 4 -40 12 l-39 13 -11 -41 c-14 -56 -7 -141 16 -200 26 -65 89 -137 146
-165 26 -13 47 -26 47 -28 0 -3 -14 -18 -32 -34 l-31 -29 24 -20 c34 -29 103
-62 141 -67 18 -3 42 -7 54 -9 28 -4 111 12 145 29 30 15 39 7 39 -34 0 -15 5
-17 33 -11 93 22 173 86 217 175 17 34 33 84 35 111 5 56 7 60 33 46 36 -19
51 -13 62 28 34 128 -52 313 -168 360 -45 19 -46 25 -12 60 l30 30 -22 21
c-12 11 -47 32 -77 46 -65 31 -170 35 -240 10 -47 -17 -57 -14 -63 20 -3 21
-4 21 -52 7z m236 -304 c51 -33 78 -85 78 -148 0 -77 -32 -127 -107 -165 -110
-56 -246 36 -245 165 1 67 32 120 91 153 58 34 128 32 183 -5z"/>
<path d="M414 547 c-39 -34 -42 -96 -5 -131 14 -14 38 -27 51 -29 41 -7 88 22
101 60 29 90 -76 161 -147 100z"/>
</g>
</svg>
